<svg xmlns="http://www.w3.org/2000/svg" xmlns:xlink="http://www.w3.org/1999/xlink" width="1080" zoomAndPan="magnify" viewBox="0 0 810 809.999993" height="1080" preserveAspectRatio="xMidYMid meet" version="1.0"><defs><g/></defs><g fill="#000000" fill-opacity="1"><g transform="translate(75.458665, 446.830267)"><g><path d="M 90.78125 -69.390625 C 98.1875 -61.316406 101.890625 -51.410156 101.890625 -39.671875 C 101.890625 -27.941406 98.1875 -18.007812 90.78125 -9.875 C 83.375 -1.75 73.957031 2.3125 62.53125 2.3125 C 52.03125 2.3125 43.382812 -0.976562 36.59375 -7.5625 L 36.59375 40.140625 L 9.265625 40.140625 L 9.265625 -79.203125 L 36.28125 -79.203125 L 36.28125 -70.25 L 36.59375 -70.25 C 43.382812 -77.757812 52.03125 -81.515625 62.53125 -81.515625 C 73.957031 -81.515625 83.375 -77.472656 90.78125 -69.390625 Z M 67.546875 -26.25 C 71.097656 -29.75 72.875 -34.222656 72.875 -39.671875 C 72.875 -45.128906 71.175781 -49.582031 67.78125 -53.03125 C 64.382812 -56.476562 59.90625 -58.203125 54.34375 -58.203125 C 48.988281 -58.203125 44.585938 -56.453125 41.140625 -52.953125 C 37.691406 -49.453125 35.96875 -45.023438 35.96875 -39.671875 C 35.96875 -34.222656 37.742188 -29.75 41.296875 -26.25 C 44.847656 -22.75 49.195312 -21 54.34375 -21 C 59.59375 -21 63.992188 -22.75 67.546875 -26.25 Z M 67.546875 -26.25 "/></g></g></g><g fill="#000000" fill-opacity="1"><g transform="translate(166.369714, 446.830267)"><g><path d="M 35.046875 -79.203125 L 35.046875 -41.53125 C 35.046875 -33.707031 36.226562 -28.148438 38.59375 -24.859375 C 40.96875 -21.566406 44.984375 -19.921875 50.640625 -19.921875 C 56.296875 -19.921875 60.304688 -21.566406 62.671875 -24.859375 C 65.046875 -28.148438 66.234375 -33.707031 66.234375 -41.53125 L 66.234375 -79.203125 L 93.5625 -79.203125 L 93.5625 -34.890625 C 93.5625 -21.710938 90.140625 -12.21875 83.296875 -6.40625 C 76.453125 -0.59375 65.566406 2.3125 50.640625 2.3125 C 35.710938 2.3125 24.828125 -0.59375 17.984375 -6.40625 C 11.140625 -12.21875 7.71875 -21.710938 7.71875 -34.890625 L 7.71875 -79.203125 Z M 35.046875 -79.203125 "/></g></g></g><g fill="#000000" fill-opacity="1"><g transform="translate(253.113175, 446.830267)"><g><path d="M 9.265625 0 L 9.265625 -79.203125 L 36.59375 -79.203125 L 36.59375 -67.78125 L 36.90625 -67.78125 C 37.101562 -68.1875 37.429688 -68.695312 37.890625 -69.3125 C 38.359375 -69.9375 39.363281 -71.019531 40.90625 -72.5625 C 42.457031 -74.101562 44.109375 -75.488281 45.859375 -76.71875 C 47.609375 -77.957031 49.867188 -79.066406 52.640625 -80.046875 C 55.421875 -81.023438 58.253906 -81.515625 61.140625 -81.515625 C 64.117188 -81.515625 67.050781 -81.101562 69.9375 -80.28125 C 72.820312 -79.457031 74.929688 -78.632812 76.265625 -77.8125 L 78.4375 -76.578125 L 67 -53.421875 C 63.601562 -56.296875 58.867188 -57.734375 52.796875 -57.734375 C 49.503906 -57.734375 46.675781 -57.015625 44.3125 -55.578125 C 41.945312 -54.140625 40.273438 -52.390625 39.296875 -50.328125 C 38.316406 -48.273438 37.617188 -46.523438 37.203125 -45.078125 C 36.796875 -43.640625 36.59375 -42.507812 36.59375 -41.6875 L 36.59375 0 Z M 9.265625 0 "/></g></g></g><g fill="#000000" fill-opacity="1"><g transform="translate(315.468489, 446.830267)"><g><path d="M 89.390625 -35.8125 L 31.953125 -35.8125 C 31.953125 -30.257812 33.753906 -26.144531 37.359375 -23.46875 C 40.960938 -20.789062 44.875 -19.453125 49.09375 -19.453125 C 53.519531 -19.453125 57.019531 -20.039062 59.59375 -21.21875 C 62.164062 -22.40625 65.097656 -24.75 68.390625 -28.25 L 88.15625 -18.375 C 79.925781 -4.582031 66.238281 2.3125 47.09375 2.3125 C 35.15625 2.3125 24.910156 -1.773438 16.359375 -9.953125 C 7.816406 -18.140625 3.546875 -27.992188 3.546875 -39.515625 C 3.546875 -51.046875 7.816406 -60.925781 16.359375 -69.15625 C 24.910156 -77.394531 35.15625 -81.515625 47.09375 -81.515625 C 59.644531 -81.515625 69.859375 -77.882812 77.734375 -70.625 C 85.609375 -63.375 89.546875 -53.007812 89.546875 -39.53125 C 89.546875 -37.675781 89.492188 -36.4375 89.390625 -35.8125 Z M 32.734375 -50.953125 L 62.84375 -50.953125 C 62.21875 -55.066406 60.59375 -58.226562 57.96875 -60.4375 C 55.34375 -62.65625 51.972656 -63.765625 47.859375 -63.765625 C 43.328125 -63.765625 39.722656 -62.578125 37.046875 -60.203125 C 34.378906 -57.835938 32.941406 -54.753906 32.734375 -50.953125 Z M 32.734375 -50.953125 "/></g></g></g><g fill="#000000" fill-opacity="1"><g transform="translate(394.031104, 446.830267)"><g><path d="M 9.265625 0 L 9.265625 -79.203125 L 36.59375 -79.203125 L 36.59375 -67.78125 L 36.90625 -67.78125 C 37.101562 -68.1875 37.429688 -68.695312 37.890625 -69.3125 C 38.359375 -69.9375 39.363281 -71.019531 40.90625 -72.5625 C 42.457031 -74.101562 44.109375 -75.488281 45.859375 -76.71875 C 47.609375 -77.957031 49.867188 -79.066406 52.640625 -80.046875 C 55.421875 -81.023438 58.253906 -81.515625 61.140625 -81.515625 C 64.117188 -81.515625 67.050781 -81.101562 69.9375 -80.28125 C 72.820312 -79.457031 74.929688 -78.632812 76.265625 -77.8125 L 78.4375 -76.578125 L 67 -53.421875 C 63.601562 -56.296875 58.867188 -57.734375 52.796875 -57.734375 C 49.503906 -57.734375 46.675781 -57.015625 44.3125 -55.578125 C 41.945312 -54.140625 40.273438 -52.390625 39.296875 -50.328125 C 38.316406 -48.273438 37.617188 -46.523438 37.203125 -45.078125 C 36.796875 -43.640625 36.59375 -42.507812 36.59375 -41.6875 L 36.59375 0 Z M 9.265625 0 "/></g></g></g><g fill="#000000" fill-opacity="1"><g transform="translate(456.386436, 446.830267)"><g><path d="M 14.65625 -9.796875 C 7.25 -17.878906 3.546875 -27.785156 3.546875 -39.515625 C 3.546875 -51.253906 7.25 -61.1875 14.65625 -69.3125 C 22.070312 -77.445312 31.492188 -81.515625 42.921875 -81.515625 C 53.421875 -81.515625 62.066406 -78.222656 68.859375 -71.640625 L 68.859375 -79.203125 L 96.1875 -79.203125 L 96.1875 0 L 69.171875 0 L 69.171875 -8.953125 L 68.859375 -8.953125 C 62.066406 -1.441406 53.421875 2.3125 42.921875 2.3125 C 31.492188 2.3125 22.070312 -1.722656 14.65625 -9.796875 Z M 37.90625 -52.953125 C 34.351562 -49.453125 32.578125 -44.972656 32.578125 -39.515625 C 32.578125 -34.066406 34.273438 -29.617188 37.671875 -26.171875 C 41.066406 -22.722656 45.546875 -21 51.109375 -21 C 56.453125 -21 60.847656 -22.75 64.296875 -26.25 C 67.742188 -29.75 69.46875 -34.175781 69.46875 -39.53125 C 69.46875 -44.976562 67.691406 -49.453125 64.140625 -52.953125 C 60.597656 -56.453125 56.253906 -58.203125 51.109375 -58.203125 C 45.859375 -58.203125 41.457031 -56.453125 37.90625 -52.953125 Z M 37.90625 -52.953125 "/></g></g></g><g fill="#000000" fill-opacity="1"><g transform="translate(547.297467, 446.830267)"><g><path d="M 9.265625 0 L 9.265625 -79.203125 L 36.59375 -79.203125 L 36.59375 -70.859375 L 36.90625 -70.859375 C 44 -77.960938 51.5625 -81.515625 59.59375 -81.515625 C 63.507812 -81.515625 67.394531 -81 71.25 -79.96875 C 75.113281 -78.945312 78.816406 -77.351562 82.359375 -75.1875 C 85.910156 -73.03125 88.789062 -69.96875 91 -66 C 93.21875 -62.039062 94.328125 -57.4375 94.328125 -52.1875 L 94.328125 0 L 67 0 L 67 -44.765625 C 67 -48.890625 65.6875 -52.492188 63.0625 -55.578125 C 60.4375 -58.671875 57.015625 -60.21875 52.796875 -60.21875 C 48.679688 -60.21875 44.953125 -58.617188 41.609375 -55.421875 C 38.265625 -52.234375 36.59375 -48.679688 36.59375 -44.765625 L 36.59375 0 Z M 9.265625 0 "/></g></g></g><g fill="#000000" fill-opacity="1"><g transform="translate(634.812712, 446.830267)"><g><path d="M 99.734375 -79.203125 L 62.0625 -41.375 L 103.4375 0 L 68.234375 0 L 36.59375 -31.65625 L 36.59375 0 L 9.265625 0 L 9.265625 -132.78125 L 36.59375 -132.78125 L 36.59375 -51.5625 L 64.21875 -79.203125 Z M 99.734375 -79.203125 "/></g></g></g><g fill="#000000" fill-opacity="1"><g transform="translate(210.673812, 487.290274)"><g><path d="M 1.5 -3 C 1.28125 -3.34375 1.171875 -3.675781 1.171875 -4 C 1.171875 -4.488281 1.425781 -4.898438 1.9375 -5.234375 C 2.1875 -5.410156 2.46875 -5.5 2.78125 -5.5 C 3.226562 -5.5 3.632812 -5.316406 4 -4.953125 C 4.726562 -4.117188 5.515625 -3.492188 6.359375 -3.078125 C 7.203125 -2.660156 8.210938 -2.453125 9.390625 -2.453125 C 10.316406 -2.484375 11.132812 -2.695312 11.84375 -3.09375 C 12.550781 -3.5 12.90625 -4.15625 12.90625 -5.0625 C 12.90625 -5.894531 12.539062 -6.53125 11.8125 -6.96875 C 11.09375 -7.40625 10.039062 -7.804688 8.65625 -8.171875 C 7.28125 -8.535156 6.140625 -8.921875 5.234375 -9.328125 C 4.335938 -9.734375 3.578125 -10.320312 2.953125 -11.09375 C 2.328125 -11.863281 2.015625 -12.867188 2.015625 -14.109375 C 2.015625 -15.210938 2.328125 -16.175781 2.953125 -17 C 3.578125 -17.832031 4.40625 -18.476562 5.4375 -18.9375 C 6.476562 -19.40625 7.609375 -19.640625 8.828125 -19.640625 C 10.003906 -19.640625 11.171875 -19.421875 12.328125 -18.984375 C 13.492188 -18.546875 14.441406 -17.875 15.171875 -16.96875 C 15.460938 -16.625 15.609375 -16.269531 15.609375 -15.90625 C 15.609375 -15.519531 15.414062 -15.140625 15.03125 -14.765625 C 14.78125 -14.546875 14.472656 -14.4375 14.109375 -14.4375 C 13.671875 -14.4375 13.316406 -14.582031 13.046875 -14.875 C 12.535156 -15.46875 11.90625 -15.921875 11.15625 -16.234375 C 10.414062 -16.554688 9.59375 -16.71875 8.6875 -16.71875 C 7.757812 -16.71875 6.972656 -16.523438 6.328125 -16.140625 C 5.679688 -15.765625 5.359375 -15.125 5.359375 -14.21875 C 5.378906 -13.363281 5.75 -12.726562 6.46875 -12.3125 C 7.1875 -11.894531 8.289062 -11.492188 9.78125 -11.109375 C 11.082031 -10.765625 12.160156 -10.394531 13.015625 -10 C 13.867188 -9.613281 14.585938 -9.035156 15.171875 -8.265625 C 15.765625 -7.492188 16.0625 -6.484375 16.0625 -5.234375 C 16.0625 -4.085938 15.726562 -3.09375 15.0625 -2.25 C 14.40625 -1.40625 13.546875 -0.757812 12.484375 -0.3125 C 11.421875 0.132812 10.289062 0.359375 9.09375 0.359375 C 7.550781 0.359375 6.125 0.09375 4.8125 -0.4375 C 3.507812 -0.976562 2.40625 -1.832031 1.5 -3 Z M 1.5 -3 "/></g></g></g><g fill="#000000" fill-opacity="1"><g transform="translate(252.051852, 487.290274)"><g><path d="M 7.8125 -15.796875 L 7.8125 -4.875 C 7.8125 -3.65625 8.359375 -3.046875 9.453125 -3.046875 C 9.628906 -3.046875 9.863281 -3.085938 10.15625 -3.171875 C 10.445312 -3.253906 10.675781 -3.296875 10.84375 -3.296875 C 11.164062 -3.296875 11.4375 -3.160156 11.65625 -2.890625 C 11.875 -2.628906 11.984375 -2.289062 11.984375 -1.875 C 11.984375 -1.351562 11.691406 -0.910156 11.109375 -0.546875 C 10.523438 -0.179688 9.863281 0 9.125 0 C 8.320312 0 7.582031 -0.0820312 6.90625 -0.25 C 6.238281 -0.425781 5.640625 -0.863281 5.109375 -1.5625 C 4.585938 -2.257812 4.328125 -3.316406 4.328125 -4.734375 L 4.328125 -15.796875 L 2.203125 -15.796875 C 1.734375 -15.796875 1.347656 -15.945312 1.046875 -16.25 C 0.742188 -16.5625 0.59375 -16.945312 0.59375 -17.40625 C 0.59375 -17.875 0.742188 -18.253906 1.046875 -18.546875 C 1.347656 -18.835938 1.734375 -18.984375 2.203125 -18.984375 L 4.328125 -18.984375 L 4.328125 -22.0625 C 4.328125 -22.550781 4.488281 -22.96875 4.8125 -23.3125 C 5.144531 -23.65625 5.566406 -23.828125 6.078125 -23.828125 C 6.566406 -23.828125 6.976562 -23.65625 7.3125 -23.3125 C 7.644531 -22.96875 7.8125 -22.550781 7.8125 -22.0625 L 7.8125 -18.984375 L 10.84375 -18.984375 C 11.3125 -18.984375 11.695312 -18.832031 12 -18.53125 C 12.3125 -18.226562 12.46875 -17.84375 12.46875 -17.375 C 12.46875 -16.90625 12.3125 -16.523438 12 -16.234375 C 11.695312 -15.941406 11.3125 -15.796875 10.84375 -15.796875 Z M 7.8125 -15.796875 "/></g></g></g><g fill="#000000" fill-opacity="1"><g transform="translate(289.876094, 487.290274)"><g><path d="M 12.171875 -19.640625 C 12.804688 -19.640625 13.351562 -19.472656 13.8125 -19.140625 C 14.28125 -18.816406 14.515625 -18.410156 14.515625 -17.921875 C 14.515625 -17.335938 14.359375 -16.890625 14.046875 -16.578125 C 13.742188 -16.273438 13.375 -16.125 12.9375 -16.125 C 12.71875 -16.125 12.390625 -16.195312 11.953125 -16.34375 C 11.441406 -16.519531 11.035156 -16.609375 10.734375 -16.609375 C 9.984375 -16.609375 9.242188 -16.34375 8.515625 -15.8125 C 7.796875 -15.289062 7.207031 -14.570312 6.75 -13.65625 C 6.300781 -12.738281 6.078125 -11.71875 6.078125 -10.59375 L 6.078125 -1.765625 C 6.078125 -1.273438 5.910156 -0.859375 5.578125 -0.515625 C 5.253906 -0.171875 4.835938 0 4.328125 0 C 3.816406 0 3.398438 -0.160156 3.078125 -0.484375 C 2.765625 -0.816406 2.609375 -1.242188 2.609375 -1.765625 L 2.609375 -17.453125 C 2.609375 -17.941406 2.769531 -18.351562 3.09375 -18.6875 C 3.425781 -19.03125 3.835938 -19.203125 4.328125 -19.203125 C 4.835938 -19.203125 5.253906 -19.03125 5.578125 -18.6875 C 5.910156 -18.351562 6.078125 -17.941406 6.078125 -17.453125 L 6.078125 -15.578125 C 6.617188 -16.773438 7.425781 -17.742188 8.5 -18.484375 C 9.570312 -19.234375 10.796875 -19.617188 12.171875 -19.640625 Z M 12.171875 -19.640625 "/></g></g></g><g fill="#000000" fill-opacity="1"><g transform="translate(328.909361, 487.290274)"><g><path d="M 18.1875 -19.46875 C 18.695312 -19.46875 19.113281 -19.300781 19.4375 -18.96875 C 19.769531 -18.632812 19.9375 -18.203125 19.9375 -17.671875 L 19.9375 -1.765625 C 19.9375 -1.273438 19.769531 -0.859375 19.4375 -0.515625 C 19.113281 -0.171875 18.695312 0 18.1875 0 C 17.664062 0 17.242188 -0.160156 16.921875 -0.484375 C 16.609375 -0.816406 16.453125 -1.242188 16.453125 -1.765625 L 16.453125 -2.71875 C 15.816406 -1.851562 14.945312 -1.125 13.84375 -0.53125 C 12.75 0.0625 11.566406 0.359375 10.296875 0.359375 C 8.640625 0.359375 7.128906 -0.0664062 5.765625 -0.921875 C 4.410156 -1.773438 3.347656 -2.960938 2.578125 -4.484375 C 1.804688 -6.015625 1.421875 -7.734375 1.421875 -9.640625 C 1.421875 -11.546875 1.804688 -13.257812 2.578125 -14.78125 C 3.347656 -16.3125 4.40625 -17.503906 5.75 -18.359375 C 7.09375 -19.210938 8.570312 -19.640625 10.1875 -19.640625 C 11.488281 -19.640625 12.691406 -19.367188 13.796875 -18.828125 C 14.910156 -18.296875 15.796875 -17.613281 16.453125 -16.78125 L 16.453125 -17.671875 C 16.453125 -18.179688 16.609375 -18.609375 16.921875 -18.953125 C 17.242188 -19.296875 17.664062 -19.46875 18.1875 -19.46875 Z M 10.703125 -2.859375 C 11.847656 -2.859375 12.867188 -3.148438 13.765625 -3.734375 C 14.660156 -4.328125 15.359375 -5.132812 15.859375 -6.15625 C 16.359375 -7.1875 16.609375 -8.347656 16.609375 -9.640625 C 16.609375 -10.910156 16.359375 -12.054688 15.859375 -13.078125 C 15.359375 -14.109375 14.660156 -14.921875 13.765625 -15.515625 C 12.867188 -16.117188 11.847656 -16.421875 10.703125 -16.421875 C 9.554688 -16.421875 8.535156 -16.125 7.640625 -15.53125 C 6.753906 -14.945312 6.054688 -14.140625 5.546875 -13.109375 C 5.046875 -12.085938 4.796875 -10.929688 4.796875 -9.640625 C 4.796875 -8.347656 5.046875 -7.1875 5.546875 -6.15625 C 6.054688 -5.132812 6.753906 -4.328125 7.640625 -3.734375 C 8.535156 -3.148438 9.554688 -2.859375 10.703125 -2.859375 Z M 10.703125 -2.859375 "/></g></g></g><g fill="#000000" fill-opacity="1"><g transform="translate(375.306691, 487.290274)"><g><path d="M 7.8125 -15.796875 L 7.8125 -4.875 C 7.8125 -3.65625 8.359375 -3.046875 9.453125 -3.046875 C 9.628906 -3.046875 9.863281 -3.085938 10.15625 -3.171875 C 10.445312 -3.253906 10.675781 -3.296875 10.84375 -3.296875 C 11.164062 -3.296875 11.4375 -3.160156 11.65625 -2.890625 C 11.875 -2.628906 11.984375 -2.289062 11.984375 -1.875 C 11.984375 -1.351562 11.691406 -0.910156 11.109375 -0.546875 C 10.523438 -0.179688 9.863281 0 9.125 0 C 8.320312 0 7.582031 -0.0820312 6.90625 -0.25 C 6.238281 -0.425781 5.640625 -0.863281 5.109375 -1.5625 C 4.585938 -2.257812 4.328125 -3.316406 4.328125 -4.734375 L 4.328125 -15.796875 L 2.203125 -15.796875 C 1.734375 -15.796875 1.347656 -15.945312 1.046875 -16.25 C 0.742188 -16.5625 0.59375 -16.945312 0.59375 -17.40625 C 0.59375 -17.875 0.742188 -18.253906 1.046875 -18.546875 C 1.347656 -18.835938 1.734375 -18.984375 2.203125 -18.984375 L 4.328125 -18.984375 L 4.328125 -22.0625 C 4.328125 -22.550781 4.488281 -22.96875 4.8125 -23.3125 C 5.144531 -23.65625 5.566406 -23.828125 6.078125 -23.828125 C 6.566406 -23.828125 6.976562 -23.65625 7.3125 -23.3125 C 7.644531 -22.96875 7.8125 -22.550781 7.8125 -22.0625 L 7.8125 -18.984375 L 10.84375 -18.984375 C 11.3125 -18.984375 11.695312 -18.832031 12 -18.53125 C 12.3125 -18.226562 12.46875 -17.84375 12.46875 -17.375 C 12.46875 -16.90625 12.3125 -16.523438 12 -16.234375 C 11.695312 -15.941406 11.3125 -15.796875 10.84375 -15.796875 Z M 7.8125 -15.796875 "/></g></g></g><g fill="#000000" fill-opacity="1"><g transform="translate(413.130941, 487.290274)"><g><path d="M 19.46875 -10.34375 C 19.4375 -9.894531 19.25 -9.519531 18.90625 -9.21875 C 18.570312 -8.914062 18.171875 -8.765625 17.703125 -8.765625 L 4.796875 -8.765625 C 4.972656 -6.972656 5.648438 -5.539062 6.828125 -4.46875 C 8.015625 -3.394531 9.46875 -2.859375 11.1875 -2.859375 C 12.351562 -2.859375 13.300781 -3.03125 14.03125 -3.375 C 14.769531 -3.71875 15.421875 -4.15625 15.984375 -4.6875 C 16.347656 -4.90625 16.703125 -5.015625 17.046875 -5.015625 C 17.460938 -5.015625 17.8125 -4.867188 18.09375 -4.578125 C 18.375 -4.285156 18.515625 -3.945312 18.515625 -3.5625 C 18.515625 -3.039062 18.269531 -2.570312 17.78125 -2.15625 C 17.070312 -1.445312 16.128906 -0.847656 14.953125 -0.359375 C 13.785156 0.117188 12.585938 0.359375 11.359375 0.359375 C 9.378906 0.359375 7.640625 -0.0507812 6.140625 -0.875 C 4.640625 -1.707031 3.476562 -2.867188 2.65625 -4.359375 C 1.832031 -5.847656 1.421875 -7.535156 1.421875 -9.421875 C 1.421875 -11.472656 1.84375 -13.273438 2.6875 -14.828125 C 3.53125 -16.378906 4.640625 -17.566406 6.015625 -18.390625 C 7.398438 -19.222656 8.890625 -19.640625 10.484375 -19.640625 C 12.046875 -19.640625 13.507812 -19.238281 14.875 -18.4375 C 16.25 -17.632812 17.347656 -16.519531 18.171875 -15.09375 C 19.003906 -13.675781 19.4375 -12.09375 19.46875 -10.34375 Z M 10.484375 -16.421875 C 9.117188 -16.421875 7.929688 -16.035156 6.921875 -15.265625 C 5.921875 -14.492188 5.265625 -13.300781 4.953125 -11.6875 L 15.765625 -11.6875 L 15.765625 -11.984375 C 15.640625 -13.273438 15.054688 -14.335938 14.015625 -15.171875 C 12.984375 -16.003906 11.804688 -16.421875 10.484375 -16.421875 Z M 10.484375 -16.421875 "/></g></g></g><g fill="#000000" fill-opacity="1"><g transform="translate(457.916203, 487.290274)"><g><path d="M 18.65625 -19.46875 C 19.164062 -19.46875 19.585938 -19.300781 19.921875 -18.96875 C 20.253906 -18.632812 20.421875 -18.203125 20.421875 -17.671875 L 20.421875 -1.546875 C 20.421875 0.429688 20 2.085938 19.15625 3.421875 C 18.3125 4.753906 17.164062 5.738281 15.71875 6.375 C 14.28125 7.007812 12.65625 7.328125 10.84375 7.328125 C 9.875 7.328125 8.734375 7.15625 7.421875 6.8125 C 6.117188 6.476562 5.28125 6.125 4.90625 5.75 C 4.15625 5.363281 3.78125 4.875 3.78125 4.28125 C 3.78125 4.132812 3.828125 3.941406 3.921875 3.703125 C 4.191406 3.085938 4.644531 2.78125 5.28125 2.78125 C 5.59375 2.78125 5.9375 2.851562 6.3125 3 C 8.257812 3.757812 9.785156 4.140625 10.890625 4.140625 C 12.835938 4.140625 14.332031 3.664062 15.375 2.71875 C 16.414062 1.78125 16.9375 0.492188 16.9375 -1.140625 L 16.9375 -3.109375 C 16.425781 -2.160156 15.5625 -1.34375 14.34375 -0.65625 C 13.132812 0.0195312 11.859375 0.359375 10.515625 0.359375 C 8.828125 0.359375 7.285156 -0.0664062 5.890625 -0.921875 C 4.503906 -1.773438 3.410156 -2.960938 2.609375 -4.484375 C 1.816406 -6.015625 1.421875 -7.734375 1.421875 -9.640625 C 1.421875 -11.546875 1.816406 -13.257812 2.609375 -14.78125 C 3.410156 -16.3125 4.5 -17.503906 5.875 -18.359375 C 7.257812 -19.210938 8.785156 -19.640625 10.453125 -19.640625 C 11.796875 -19.640625 13.046875 -19.332031 14.203125 -18.71875 C 15.367188 -18.113281 16.28125 -17.375 16.9375 -16.5 L 16.9375 -17.671875 C 16.9375 -18.179688 17.09375 -18.609375 17.40625 -18.953125 C 17.726562 -19.296875 18.144531 -19.46875 18.65625 -19.46875 Z M 10.921875 -2.859375 C 12.117188 -2.859375 13.179688 -3.144531 14.109375 -3.71875 C 15.035156 -4.289062 15.757812 -5.097656 16.28125 -6.140625 C 16.8125 -7.179688 17.078125 -8.347656 17.078125 -9.640625 C 17.078125 -10.929688 16.8125 -12.085938 16.28125 -13.109375 C 15.757812 -14.140625 15.035156 -14.945312 14.109375 -15.53125 C 13.179688 -16.125 12.117188 -16.421875 10.921875 -16.421875 C 9.742188 -16.421875 8.691406 -16.125 7.765625 -15.53125 C 6.835938 -14.945312 6.109375 -14.132812 5.578125 -13.09375 C 5.054688 -12.0625 4.796875 -10.910156 4.796875 -9.640625 C 4.796875 -8.367188 5.054688 -7.210938 5.578125 -6.171875 C 6.109375 -5.140625 6.835938 -4.328125 7.765625 -3.734375 C 8.691406 -3.148438 9.742188 -2.859375 10.921875 -2.859375 Z M 10.921875 -2.859375 "/></g></g></g><g fill="#000000" fill-opacity="1"><g transform="translate(504.789807, 487.290274)"><g><path d="M 5.90625 -1.765625 C 5.90625 -1.273438 5.738281 -0.859375 5.40625 -0.515625 C 5.070312 -0.171875 4.648438 0 4.140625 0 C 3.648438 0 3.238281 -0.171875 2.90625 -0.515625 C 2.582031 -0.859375 2.421875 -1.273438 2.421875 -1.765625 L 2.421875 -17.625 C 2.421875 -18.113281 2.582031 -18.53125 2.90625 -18.875 C 3.238281 -19.21875 3.648438 -19.390625 4.140625 -19.390625 C 4.648438 -19.390625 5.070312 -19.21875 5.40625 -18.875 C 5.738281 -18.53125 5.90625 -18.113281 5.90625 -17.625 Z M 4.140625 -21.8125 C 3.429688 -21.8125 2.921875 -21.9375 2.609375 -22.1875 C 2.304688 -22.445312 2.15625 -22.859375 2.15625 -23.421875 L 2.15625 -24.015625 C 2.15625 -24.597656 2.320312 -25.007812 2.65625 -25.25 C 2.988281 -25.5 3.492188 -25.625 4.171875 -25.625 C 4.859375 -25.625 5.351562 -25.492188 5.65625 -25.234375 C 5.96875 -24.984375 6.125 -24.578125 6.125 -24.015625 L 6.125 -23.421875 C 6.125 -22.835938 5.960938 -22.421875 5.640625 -22.171875 C 5.328125 -21.929688 4.828125 -21.8125 4.140625 -21.8125 Z M 4.140625 -21.8125 "/></g></g></g><g fill="#000000" fill-opacity="1"><g transform="translate(537.00854, 487.290274)"><g><path d="M 19.46875 -10.34375 C 19.4375 -9.894531 19.25 -9.519531 18.90625 -9.21875 C 18.570312 -8.914062 18.171875 -8.765625 17.703125 -8.765625 L 4.796875 -8.765625 C 4.972656 -6.972656 5.648438 -5.539062 6.828125 -4.46875 C 8.015625 -3.394531 9.46875 -2.859375 11.1875 -2.859375 C 12.351562 -2.859375 13.300781 -3.03125 14.03125 -3.375 C 14.769531 -3.71875 15.421875 -4.15625 15.984375 -4.6875 C 16.347656 -4.90625 16.703125 -5.015625 17.046875 -5.015625 C 17.460938 -5.015625 17.8125 -4.867188 18.09375 -4.578125 C 18.375 -4.285156 18.515625 -3.945312 18.515625 -3.5625 C 18.515625 -3.039062 18.269531 -2.570312 17.78125 -2.15625 C 17.070312 -1.445312 16.128906 -0.847656 14.953125 -0.359375 C 13.785156 0.117188 12.585938 0.359375 11.359375 0.359375 C 9.378906 0.359375 7.640625 -0.0507812 6.140625 -0.875 C 4.640625 -1.707031 3.476562 -2.867188 2.65625 -4.359375 C 1.832031 -5.847656 1.421875 -7.535156 1.421875 -9.421875 C 1.421875 -11.472656 1.84375 -13.273438 2.6875 -14.828125 C 3.53125 -16.378906 4.640625 -17.566406 6.015625 -18.390625 C 7.398438 -19.222656 8.890625 -19.640625 10.484375 -19.640625 C 12.046875 -19.640625 13.507812 -19.238281 14.875 -18.4375 C 16.25 -17.632812 17.347656 -16.519531 18.171875 -15.09375 C 19.003906 -13.675781 19.4375 -12.09375 19.46875 -10.34375 Z M 10.484375 -16.421875 C 9.117188 -16.421875 7.929688 -16.035156 6.921875 -15.265625 C 5.921875 -14.492188 5.265625 -13.300781 4.953125 -11.6875 L 15.765625 -11.6875 L 15.765625 -11.984375 C 15.640625 -13.273438 15.054688 -14.335938 14.015625 -15.171875 C 12.984375 -16.003906 11.804688 -16.421875 10.484375 -16.421875 Z M 10.484375 -16.421875 "/></g></g></g><g fill="#000000" fill-opacity="1"><g transform="translate(581.793801, 487.290274)"><g><path d="M 1.5 -3 C 1.28125 -3.34375 1.171875 -3.675781 1.171875 -4 C 1.171875 -4.488281 1.425781 -4.898438 1.9375 -5.234375 C 2.1875 -5.410156 2.46875 -5.5 2.78125 -5.5 C 3.226562 -5.5 3.632812 -5.316406 4 -4.953125 C 4.726562 -4.117188 5.515625 -3.492188 6.359375 -3.078125 C 7.203125 -2.660156 8.210938 -2.453125 9.390625 -2.453125 C 10.316406 -2.484375 11.132812 -2.695312 11.84375 -3.09375 C 12.550781 -3.5 12.90625 -4.15625 12.90625 -5.0625 C 12.90625 -5.894531 12.539062 -6.53125 11.8125 -6.96875 C 11.09375 -7.40625 10.039062 -7.804688 8.65625 -8.171875 C 7.28125 -8.535156 6.140625 -8.921875 5.234375 -9.328125 C 4.335938 -9.734375 3.578125 -10.320312 2.953125 -11.09375 C 2.328125 -11.863281 2.015625 -12.867188 2.015625 -14.109375 C 2.015625 -15.210938 2.328125 -16.175781 2.953125 -17 C 3.578125 -17.832031 4.40625 -18.476562 5.4375 -18.9375 C 6.476562 -19.40625 7.609375 -19.640625 8.828125 -19.640625 C 10.003906 -19.640625 11.171875 -19.421875 12.328125 -18.984375 C 13.492188 -18.546875 14.441406 -17.875 15.171875 -16.96875 C 15.460938 -16.625 15.609375 -16.269531 15.609375 -15.90625 C 15.609375 -15.519531 15.414062 -15.140625 15.03125 -14.765625 C 14.78125 -14.546875 14.472656 -14.4375 14.109375 -14.4375 C 13.671875 -14.4375 13.316406 -14.582031 13.046875 -14.875 C 12.535156 -15.46875 11.90625 -15.921875 11.15625 -16.234375 C 10.414062 -16.554688 9.59375 -16.71875 8.6875 -16.71875 C 7.757812 -16.71875 6.972656 -16.523438 6.328125 -16.140625 C 5.679688 -15.765625 5.359375 -15.125 5.359375 -14.21875 C 5.378906 -13.363281 5.75 -12.726562 6.46875 -12.3125 C 7.1875 -11.894531 8.289062 -11.492188 9.78125 -11.109375 C 11.082031 -10.765625 12.160156 -10.394531 13.015625 -10 C 13.867188 -9.613281 14.585938 -9.035156 15.171875 -8.265625 C 15.765625 -7.492188 16.0625 -6.484375 16.0625 -5.234375 C 16.0625 -4.085938 15.726562 -3.09375 15.0625 -2.25 C 14.40625 -1.40625 13.546875 -0.757812 12.484375 -0.3125 C 11.421875 0.132812 10.289062 0.359375 9.09375 0.359375 C 7.550781 0.359375 6.125 0.09375 4.8125 -0.4375 C 3.507812 -0.976562 2.40625 -1.832031 1.5 -3 Z M 1.5 -3 "/></g></g></g></svg>